# xmcd
#
# Track frame offsets:
#	150
#	15609
#	31760
#	48773
#	63763
#	81710
#	99960
#	115489
#	132092
#	152041
#
# Disc length: 2228 seconds
#
# Revision: 0
# Processed by: cddbd v1.5.2PL0 Copyright (c) Steve Scherf et al.
# Submitted via: EasyCDDAExtractor 12.1.0.1
#
DISCID=7408b20a
DTITLE=Remi Chasse - Debout dans l'ombre
DYEAR=2015
DGENRE=Chanson quebecoise
TTITLE0=Je refuse de nous laisser mourir
TTITLE1=Le meme nom
TTITLE2=Sans adieux
TTITLE3=Tu ne souris a personne
TTITLE4=Quand le vent va changer d'bord
TTITLE5=Couper les ponts
TTITLE6=Fermer le spotlight
TTITLE7=La tete pleine, les mains vides
TTITLE8=Je ne vois plus rien
TTITLE9=Une armee dans ma voix
EXTD=
EXTT0=
EXTT1=
EXTT2=
EXTT3=
EXTT4=
EXTT5=
EXTT6=
EXTT7=
EXTT8=
EXTT9=
PLAYORDER=
